# xmcd
#
# Track frame offsets:
# 150
# 14100
# 25737
# 39137
# 48912
# 67075
# 80787
# 92575
# 105350
# 115862
# 131025
# 143562
#
# Disc length: 2232 seconds
#
#
# Revision: 3
# Processed by: cddbd v1.5.2PL0 Copyright (c) Steve Scherf et al.
# Submitted via: FreeRIP 2.944 
#
DISCID=9908b60c
DTITLE=Enrique Ugarte - Valse Musette CD II
DYEAR=1997
DGENRE=
TTITLE0=Domino
TTITLE1=Nanouchou Java
TTITLE2=Moulin Rouge
TTITLE3=Sous Les Ponts De Paris
TTITLE4=Irene
TTITLE5=La Vie En Rose
TTITLE6=La Java Bleue
TTITLE7=Nanousette
TTITLE8=La Java
TTITLE9=Mademoiselle De Paris
TTITLE10=Ca Gaze
TTITLE11=Pour L`enfant Sophie
EXTD=
EXTT0=
EXTT1=
EXTT2=
EXTT3=
EXTT4=
EXTT5=
EXTT6=
EXTT7=
EXTT8=
EXTT9=
EXTT10=
EXTT11=
PLAYORDER=
